<svg xmlns="http://www.w3.org/2000/svg" viewBox="0 0 1200 630" role="img" aria-label="Cristian Montoya portfolio preview">
  <rect width="1200" height="630" fill="#0a0e1a" />
  <path d="M0 0h1200v630H0z" fill="#0a0e1a" />
  <g opacity="0.28" stroke="#30394b" stroke-width="1">
    <path d="M0 90h1200M0 180h1200M0 270h1200M0 360h1200M0 450h1200M0 540h1200" />
    <path d="M120 0v630M240 0v630M360 0v630M480 0v630M600 0v630M720 0v630M840 0v630M960 0v630M1080 0v630" />
  </g>
  <rect x="110" y="112" width="980" height="406" rx="18" fill="#111827" stroke="#30394b" stroke-width="2" />
  <text x="160" y="190" fill="#00ff9d" font-family="monospace" font-size="34">$ whoami</text>
  <text x="160" y="255" fill="#f0f6fc" font-family="monospace" font-size="64" font-weight="700">Cristian Montoya</text>
  <text x="160" y="318" fill="#00d4ff" font-family="monospace" font-size="38">Senior AWS DevOps Engineer</text>
  <text x="160" y="388" fill="#8b949e" font-family="Arial, sans-serif" font-size="30">Secure cloud platforms, Terraform, CI/CD, compliance, and AI-assisted delivery.</text>
  <text x="160" y="462" fill="#00ff9d" font-family="monospace" font-size="30">romanops.dev</text>
</svg>
